<svg width="238" height="158" viewBox="0 0 238 158" fill="none" xmlns="http://www.w3.org/2000/svg">
<path d="M56.4 157.8C39.8667 157.8 26.5333 153.2 16.4 144C6.4 134.8 0.933333 122.2 0 106.2H12C12.6667 118.467 16.6667 128.067 24 135C31.3333 141.8 40.6 145.2 51.8 145.2C63.9333 145.2 73.3333 141.667 80 134.6C86.6667 127.4 90 117.667 90 105.4C90 93.1333 86.6 83.8 79.8 77.4C73.1333 70.8667 64.2 67.6 53 67.6C45.8 67.6 39 69 32.6 71.8C26.3333 74.4667 21.1333 78.6 17 84.2L6.6 79L17 3H106.8V20H25.6L18.6 72.2C23.6667 67 29.9333 63 37.4 60.2C45 57.4 53.0667 56 61.6 56C77.3333 56 89.7333 60.4 98.8 69.2C108 77.8667 112.6 89.8 112.6 105C112.6 115.667 110.267 125 105.6 133C101.067 140.867 94.5333 147 86 151.4C77.6 155.667 67.7333 157.8 56.4 157.8Z" fill="black" style="fill:black;fill-opacity:1;"/>
<path d="M129.744 151.4C129.744 146.333 130.677 141.8 132.544 137.8C134.544 133.8 138.344 129.067 143.944 123.6C149.677 118 158.61 110.133 170.744 100C183.144 89.7333 191.944 82.1333 197.144 77.2C202.344 72.1333 206.41 66.8 209.344 61.2C212.41 55.6 213.944 49.0667 213.944 41.6C213.944 31.6 211.477 23.9333 206.544 18.6C201.61 13.2667 194.677 10.6 185.744 10.6C174.144 10.6 165.277 14.7333 159.144 23C153.01 31.1333 149.877 41.9333 149.744 55.4H129.544C130.61 38.2 136.277 24.6667 146.544 14.8C156.944 4.93333 170.81 0 188.144 0C202.944 0 214.677 3.6 223.344 10.8C232.01 18 236.344 28.3333 236.344 41.8C236.344 49.8 234.677 57 231.344 63.4C228.01 69.6667 223.344 75.6 217.344 81.2C211.477 86.6667 203.477 93.0667 193.344 100.4C170.81 115.733 155.877 127.8 148.544 136.6H237.344L237.544 154.4H129.744V151.4Z" fill="black" style="fill:black;fill-opacity:1;"/>
</svg>
