<svg width="25" height="30" viewBox="0 0 25 30" fill="none" xmlns="http://www.w3.org/2000/svg">
<path d="M0.640625 13.2457V13.1757C1.32303 12.7558 1.41052 12.1434 1.41052 10.901V2.34468C1.41052 1.03236 1.32303 0.489934 0.640625 0.0524933V0H4.14015V0.0524933C3.45775 0.489934 3.37026 1.03236 3.37026 2.34468V6.50912L8.02463 1.64478C8.60205 1.03236 9.022 0.454939 9.33696 0H11.5417V0.157479C10.7543 0.419943 10.2643 0.734901 9.70441 1.29483L5.53997 5.51176L11.6816 13.1232V13.2457H9.49443L4.42012 6.6666L3.37026 7.73396V10.901C3.37026 12.1434 3.45775 12.7558 4.14015 13.1757V13.2457H0.640625Z" fill="black" style="fill:black;fill-opacity:1;"/>
<path d="M11.6733 13.1932C12.2857 12.8083 12.7757 12.2833 13.1431 11.216L16.8001 1.17234C16.9576 0.699906 16.9751 0.349953 16.8351 0H18.8298L23.0643 11.286C23.4142 12.2484 23.7642 12.8083 24.3591 13.1757V13.2457H20.5446V13.1932C21.227 12.8083 21.2795 12.2484 20.9471 11.3035L20.2122 9.16877H15.0503L14.3154 11.2685C13.9655 12.3008 14.0005 12.8258 14.5954 13.1932V13.2457H11.6733V13.1932ZM15.3478 8.29388H19.8972L17.6225 1.74977L15.3478 8.29388Z" fill="black" style="fill:black;fill-opacity:1;"/>
<path d="M0.640625 29.2457V29.1757C1.32303 28.7558 1.41052 28.1434 1.41052 26.901V18.3447C1.41052 17.0324 1.32303 16.4899 0.640625 16.0525V16H4.14015V16.0525C3.45775 16.4899 3.37026 17.0324 3.37026 18.3447V22.5091L8.02463 17.6448C8.60205 17.0324 9.022 16.4549 9.33696 16H11.5417V16.1575C10.7543 16.4199 10.2643 16.7349 9.70441 17.2948L5.53997 21.5118L11.6816 29.1232V29.2457H9.49443L4.42012 22.6666L3.37026 23.734V26.901C3.37026 28.1434 3.45775 28.7558 4.14015 29.1757V29.2457H0.640625Z" fill="black" style="fill:black;fill-opacity:1;"/>
<path d="M11.6733 29.1932C12.2857 28.8083 12.7757 28.2833 13.1431 27.216L16.8001 17.1723C16.9576 16.6999 16.9751 16.35 16.8351 16H18.8298L23.0643 27.286C23.4142 28.2484 23.7642 28.8083 24.3591 29.1757V29.2457H20.5446V29.1932C21.227 28.8083 21.2795 28.2484 20.9471 27.3035L20.2122 25.1688H15.0503L14.3154 27.2685C13.9655 28.3008 14.0005 28.8258 14.5954 29.1932V29.2457H11.6733V29.1932ZM15.3478 24.2939H19.8972L17.6225 17.7498L15.3478 24.2939Z" fill="black" style="fill:black;fill-opacity:1;"/>
</svg>
