<svg width="236" height="52" viewBox="0 0 236 52" fill="none" xmlns="http://www.w3.org/2000/svg">
<path d="M0.673334 49.7467C1.85556 49.0289 2.61556 48.1 2.95333 46.96C3.29111 45.7778 3.46 43.9622 3.46 41.5133V10.5433C3.46 8.01 3.29111 6.19444 2.95333 5.09666C2.61556 3.95666 1.85556 3.00666 0.673334 2.24666V2.05666H17.14C29.7644 2.05666 36.0767 6.19444 36.0767 14.47C36.0767 18.9033 34.2611 22.1967 30.63 24.35C27.0411 26.4611 22.1011 27.5167 15.81 27.5167H10.5533V41.5133C10.5533 43.9622 10.7222 45.7778 11.06 46.96C11.44 48.1 12.2211 49.0289 13.4033 49.7467V50H0.673334V49.7467ZM15.43 24.4133C19.6944 24.4133 23.0089 23.6111 25.3733 22.0067C27.7378 20.4022 28.92 17.89 28.92 14.47C28.92 8.26333 24.8244 5.16 16.6333 5.16H10.5533V24.4133H15.43ZM39.3655 49.7467C40.4211 49.0289 41.1178 48.0789 41.4555 46.8967C41.7933 45.7144 41.9622 43.92 41.9622 41.5133V27.5167C41.9622 25.0256 41.7933 23.21 41.4555 22.07C41.1178 20.93 40.4211 19.98 39.3655 19.22V19.03H49.3089C48.9289 19.8322 48.6756 20.8244 48.5489 22.0067C48.4644 23.1889 48.4222 25.0256 48.4222 27.5167V28.15C48.8022 26.5456 49.5411 24.9833 50.6389 23.4633C51.7367 21.9433 53.1933 20.6978 55.0089 19.7267C56.8667 18.7133 58.9989 18.2067 61.4056 18.2067V23.8433C57.0567 23.6744 53.8056 24.54 51.6522 26.44C49.4989 28.34 48.4222 30.8733 48.4222 34.04V41.7667C48.4222 44.1733 48.5911 45.9467 48.9289 47.0867C49.2667 48.1844 50.0267 49.0922 51.2089 49.81V50H39.3655V49.7467ZM79.8237 51.0767C76.5726 51.0767 73.7226 50.38 71.2737 48.9867C68.8248 47.5933 66.9248 45.6511 65.5737 43.16C64.2648 40.6689 63.6103 37.7767 63.6103 34.4833C63.6103 31.19 64.2648 28.2978 65.5737 25.8067C66.9248 23.3156 68.8248 21.3944 71.2737 20.0433C73.7226 18.65 76.5726 17.9533 79.8237 17.9533C83.0748 17.9533 85.9248 18.65 88.3737 20.0433C90.8226 21.3944 92.7015 23.3156 94.0103 25.8067C95.3615 28.2978 96.037 31.19 96.037 34.4833C96.037 37.7767 95.3615 40.6689 94.0103 43.16C92.7015 45.6511 90.8226 47.5933 88.3737 48.9867C85.9248 50.38 83.0748 51.0767 79.8237 51.0767ZM70.1337 34.4833C70.1337 38.7478 70.9781 42.0833 72.667 44.49C74.3981 46.8967 76.8048 48.1 79.887 48.1C82.8848 48.1 85.2281 46.8967 86.917 44.49C88.6481 42.0833 89.5137 38.7478 89.5137 34.4833C89.5137 30.1767 88.6692 26.8411 86.9803 24.4767C85.2915 22.1122 82.927 20.93 79.887 20.93C76.8048 20.93 74.3981 22.1122 72.667 24.4767C70.9781 26.8411 70.1337 30.1767 70.1337 34.4833ZM125.408 50C125.661 47.34 125.788 44.68 125.788 42.02C124.817 44.68 123.36 46.77 121.418 48.29C119.518 49.81 117.132 50.57 114.261 50.57C111.517 50.57 109.152 49.8733 107.168 48.48C105.226 47.0867 103.748 45.1867 102.735 42.78C101.721 40.3311 101.215 37.5867 101.215 34.5467C101.215 31.3378 101.785 28.4878 102.925 25.9967C104.065 23.4633 105.69 21.5 107.801 20.1067C109.912 18.6711 112.361 17.9533 115.148 17.9533C119.708 17.9533 123.255 19.9378 125.788 23.9067V9.02333C125.788 6.95444 125.64 5.39222 125.345 4.33666C125.091 3.23889 124.521 2.35222 123.635 1.67666V1.48666L132.248 0.409995L132.628 0.599996C132.459 1.52889 132.353 2.54222 132.311 3.63999C132.269 4.69555 132.248 6.49 132.248 9.02333V41.5133C132.248 43.92 132.396 45.7144 132.691 46.8967C133.029 48.0789 133.705 49.0289 134.718 49.7467V50H125.408ZM107.801 34.5467C107.801 38.22 108.519 41.2178 109.955 43.54C111.432 45.82 113.607 46.96 116.478 46.96C119.476 46.96 121.756 45.7144 123.318 43.2233C124.922 40.7322 125.725 37.5233 125.725 33.5967H125.788V27.4533C124.732 25.5111 123.445 24.0333 121.925 23.02C120.405 21.9644 118.737 21.4367 116.921 21.4367C114.05 21.4367 111.812 22.6189 110.208 24.9833C108.603 27.3056 107.801 30.4933 107.801 34.5467ZM151.653 50.95C145.066 50.95 141.773 47.0867 141.773 39.36V27.5167C141.773 24.9833 141.604 23.1678 141.266 22.07C140.971 20.93 140.295 19.98 139.24 19.22V19.03H148.993C148.698 19.8322 148.486 20.8244 148.36 22.0067C148.275 23.1889 148.233 25.0256 148.233 27.5167V38.79C148.233 41.6189 148.74 43.7089 149.753 45.06C150.809 46.3689 152.392 47.0233 154.503 47.0233C156.868 47.0233 158.831 46.2 160.393 44.5533C161.955 42.8644 163.011 40.6478 163.56 37.9033V27.5167C163.56 24.9833 163.391 23.1678 163.053 22.07C162.758 20.93 162.082 19.98 161.026 19.22V19.03H170.78C170.484 19.8322 170.273 20.8244 170.146 22.0067C170.062 23.1889 170.02 25.0256 170.02 27.5167V41.5133C170.02 43.92 170.168 45.7144 170.463 46.8967C170.801 48.0789 171.476 49.0289 172.49 49.7467V50H162.736C163.032 49.1978 163.243 48.2689 163.37 47.2133C163.496 46.1156 163.56 44.5322 163.56 42.4633C162.546 44.9122 161.005 46.9389 158.936 48.5433C156.91 50.1478 154.482 50.95 151.653 50.95ZM192.928 51.0767C189.93 51.0767 187.27 50.4222 184.948 49.1133C182.625 47.7622 180.789 45.8411 179.438 43.35C178.129 40.8167 177.474 37.8822 177.474 34.5467C177.474 31.1267 178.15 28.1711 179.501 25.68C180.894 23.1467 182.794 21.2256 185.201 19.9167C187.65 18.6078 190.394 17.9533 193.434 17.9533C196.179 17.9533 198.585 18.4811 200.654 19.5367C202.765 20.55 204.454 21.9644 205.721 23.78C206.988 25.5533 207.769 27.5378 208.064 29.7333H202.238C201.858 27.2422 200.971 25.1522 199.578 23.4633C198.226 21.7744 196.221 20.93 193.561 20.93C190.479 20.93 188.093 22.0911 186.404 24.4133C184.758 26.7356 183.934 29.7967 183.934 33.5967C183.934 37.5656 184.8 40.8167 186.531 43.35C188.304 45.8833 190.922 47.15 194.384 47.15C197.298 47.15 199.62 46.2633 201.351 44.49C203.082 42.7167 204.243 40.3311 204.834 37.3333H208.254C207.663 41.4289 206.038 44.7433 203.378 47.2767C200.76 49.81 197.277 51.0767 192.928 51.0767ZM225.779 50.57C219.742 50.57 216.723 47.0444 216.723 39.9933V22.07H210.199V19.03H216.723V10.7967L222.739 6.17333H223.183V19.03H233.379V22.07H223.183V39.8667C223.183 42.3578 223.605 44.0889 224.449 45.06C225.294 46.0311 226.518 46.5167 228.123 46.5167C229.516 46.5167 230.762 46.1367 231.859 45.3767C232.999 44.5744 233.949 43.4344 234.709 41.9567L235.406 44.3C234.519 46.2844 233.232 47.8256 231.543 48.9233C229.854 50.0211 227.933 50.57 225.779 50.57Z" fill="black" style="fill:black;fill-opacity:1;"/>
</svg>
